<?xml version="1.0" encoding="UTF-8" standalone="no"?><!DOCTYPE svg PUBLIC "-//W3C//DTD SVG 1.1//EN" "http://www.w3.org/Graphics/SVG/1.1/DTD/svg11.dtd"><svg width="100%" height="100%" viewBox="0 0 200 200" version="1.1" xmlns="http://www.w3.org/2000/svg" xmlns:xlink="http://www.w3.org/1999/xlink" xml:space="preserve" style="fill-rule:evenodd;clip-rule:evenodd;stroke-linejoin:round;stroke-miterlimit:1.41421;"><path id="CP_Logo_simple2" d="M46.116,184.136l4.646,-12.863l17.498,-49.006c16.386,0.354 32.771,0.767 49.158,1.062c18.609,0.335 37.22,0.551 55.83,0.827l18.883,0.157c1.741,-0.129 1.745,-0.13 3.439,-0.555l1.603,-0.711l0.154,-0.103c-10.417,44.098 -50.065,76.956 -97.327,76.956c-19.835,0 -38.329,-5.787 -53.884,-15.764Zm-44.042,-63.895c0.171,0.06 0.345,0.112 0.52,0.156c0.357,0.09 1.09,0.177 1.09,0.177l0.385,0.013l56.42,1.512l0.598,0.013l-13.4,48.186l-3.454,12.599c-21.293,-14.342 -36.778,-36.66 -42.159,-62.656Zm92.117,-120.175l-0.792,0.92l-50.477,58.771l-42.451,49.893c-0.312,-3.208 -0.471,-6.461 -0.471,-9.75c0,-53.242 41.698,-96.821 94.191,-99.834Zm1.301,-0.066l-4.824,16.753l-16.454,58.154l-8.663,31.153l-5.062,0.11l-45.154,1.21l32.389,-43.812l45.765,-62.511l0.724,-0.992c0.426,-0.024 0.852,-0.046 1.279,-0.065Zm19.614,1.036c48.035,7.291 84.894,48.807 84.894,98.864c0,2.425 -0.086,4.829 -0.257,7.211l-0.837,-1.085c-14.34,-18.31 -21.948,-28.122 -36.7,-46.533c-14.082,-17.575 -28.239,-35.091 -42.358,-52.636l-4.742,-5.821Zm-10.984,19.984c-6.689,19.002 -13.35,38.015 -20.067,57.008c-3.286,9.292 -6.628,18.565 -9.942,27.847l43.305,-0.936l53.975,-0.799l-6.051,-7.858c-6.248,-8.223 -12.534,-16.417 -18.743,-24.669c-13.542,-17.994 -27.007,-36.047 -40.511,-54.07l-0.517,-0.7c-0.483,1.392 -0.966,2.784 -1.449,4.177Z" style="fill:#ec8636;"/></svg>